<svg width="160" height="74" viewBox="0 0 160 74" fill="none" xmlns="http://www.w3.org/2000/svg">
<path d="M5 32C2.23858 32 2.41411e-07 34.2386 0 37C-2.41411e-07 39.7614 2.23858 42 5 42L5 32ZM158.536 40.5355C160.488 38.5829 160.488 35.4171 158.536 33.4645L126.716 1.64467C124.763 -0.30795 121.597 -0.30795 119.645 1.64467C117.692 3.59729 117.692 6.76312 119.645 8.71574L147.929 37L119.645 65.2843C117.692 67.2369 117.692 70.4027 119.645 72.3553C121.597 74.308 124.763 74.308 126.716 72.3553L158.536 40.5355ZM5 42L155 42L155 32L5 32L5 42Z" fill="#ED1B24"/>
</svg>
