<svg width="223" height="140" viewBox="0 0 223 140" fill="none" xmlns="http://www.w3.org/2000/svg">
<rect x="1.5" y="17.5" width="219.4" height="121" stroke="#5F5F5F" stroke-width="3"/>
<path d="M1.5 1.5H67.4244L84.0911 16.5H1.5V1.5Z" stroke="#5F5F5F" stroke-width="3"/>
<path d="M97.6 76.5C97.6 74.6144 97.6 73.6716 98.1858 73.0858C98.7715 72.5 99.7144 72.5 101.6 72.5H117.6C119.486 72.5 120.428 72.5 121.014 73.0858C121.6 73.6716 121.6 74.6144 121.6 76.5V84.5C121.6 87.3284 121.6 88.7426 120.721 89.6213C119.843 90.5 118.428 90.5 115.6 90.5H103.6C100.772 90.5 99.3573 90.5 98.4787 89.6213C97.6 88.7426 97.6 87.3284 97.6 84.5V76.5Z" stroke="#5F5F5F" stroke-opacity="0.8" stroke-width="2"/>
<path d="M115.6 71V69.5C115.6 68.571 115.6 68.1065 115.538 67.7178C115.2 65.5784 113.522 63.9004 111.382 63.5616C110.993 63.5 110.529 63.5 109.6 63.5V63.5C108.671 63.5 108.206 63.5 107.818 63.5616C105.678 63.9004 104 65.5784 103.662 67.7178C103.6 68.1065 103.6 68.571 103.6 69.5V71" stroke="#5F5F5F" stroke-opacity="0.8" stroke-width="2" stroke-linecap="round"/>
<circle cx="109.6" cy="81.5" r="3" fill="#5F5F5F" fill-opacity="0.8"/>
</svg>
