<svg width="105" height="105" viewBox="0 0 105 105" fill="none" xmlns="http://www.w3.org/2000/svg">
<path d="M13.125 17.125C13.125 15.7249 13.125 15.0248 13.3975 14.49C13.6372 14.0196 14.0196 13.6372 14.49 13.3975C15.0248 13.125 15.7249 13.125 17.125 13.125H87.875C89.2751 13.125 89.9752 13.125 90.51 13.3975C90.9804 13.6372 91.3628 14.0196 91.6025 14.49C91.875 15.0248 91.875 15.7249 91.875 17.125V87.875C91.875 89.2751 91.875 89.9752 91.6025 90.51C91.3628 90.9804 90.9804 91.3628 90.51 91.6025C89.9752 91.875 89.2751 91.875 87.875 91.875H17.125C15.7249 91.875 15.0248 91.875 14.49 91.6025C14.0196 91.3628 13.6372 90.9804 13.3975 90.51C13.125 89.9752 13.125 89.2751 13.125 87.875V17.125Z" stroke="#F9F9F9" stroke-width="4"/>
<circle cx="35" cy="52.5" r="11.125" stroke="#F9F9F9" stroke-width="4"/>
<path d="M46.5 52.5H64M77.125 61.25V52.65C77.125 52.5672 77.0578 52.5 76.975 52.5H64M64 52.5V61.25" stroke="#F9F9F9" stroke-width="4" stroke-linecap="round"/>
</svg>
